<svg width="72" height="71" viewBox="0 0 72 71" fill="none" xmlns="http://www.w3.org/2000/svg">
<mask id="path-1-inside-1_161_173" fill="white">
<ellipse cx="36" cy="35.5" rx="36" ry="35.5"/>
</mask>
<path d="M72 35.5H12C12 21.1806 23.5391 11 36 11V71V131C88.2254 131 132 89.0316 132 35.5H72ZM36 71V11C48.4609 11 60 21.1806 60 35.5H0H-60C-60 89.0316 -16.2254 131 36 131V71ZM0 35.5H60C60 49.8194 48.4609 60 36 60V0V-60C-16.2254 -60 -60 -18.0316 -60 35.5H0ZM36 0V60C23.5391 60 12 49.8194 12 35.5H72H132C132 -18.0316 88.2254 -60 36 -60V0Z" fill="#D23333" fill-opacity="0.3" mask="url(#path-1-inside-1_161_173)"/>
</svg>
