<svg width="72" height="72" viewBox="0 0 72 72" fill="none" xmlns="http://www.w3.org/2000/svg">
<mask id="path-1-inside-1_161_173" fill="white">
<ellipse cx="35.7508" cy="35.7509" rx="36" ry="35.5" transform="rotate(-45 35.7508 35.7509)"/>
</mask>
<path d="M61.2066 10.295L18.7802 52.7214C8.65488 42.5961 9.61545 27.238 18.4266 18.4268L60.8531 60.8532L103.279 103.28C140.208 66.3506 141.486 5.72117 103.633 -32.1314L61.2066 10.295ZM60.8531 60.8532L18.4266 18.4268C27.2378 9.61556 42.596 8.655 52.7213 18.7803L10.2949 61.2067L-32.1315 103.633C5.72105 141.486 66.3505 140.209 103.279 103.28L60.8531 60.8532ZM10.2949 61.2067L52.7213 18.7803C62.8466 28.9056 61.8861 44.2638 53.0749 53.075L10.6485 10.6486L-31.7779 -31.7778C-68.7069 5.15113 -69.984 65.7806 -32.1315 103.633L10.2949 61.2067ZM10.6485 10.6486L53.0749 53.075C44.2637 61.8862 28.9055 62.8468 18.7802 52.7214L61.2066 10.295L103.633 -32.1314C65.7805 -69.9839 5.15101 -68.7068 -31.7779 -31.7778L10.6485 10.6486Z" fill="url(#paint0_linear_161_173)" mask="url(#path-1-inside-1_161_173)"/>
<defs>
<linearGradient id="paint0_linear_161_173" x1="10.6485" y1="10.6486" x2="60.8531" y2="60.8532" gradientUnits="userSpaceOnUse">
<stop stop-color="#C4FDFF"/>
<stop offset="1" stop-color="#E3D4FA"/>
</linearGradient>
</defs>
</svg>
