<svg width="558" height="470" viewBox="0 0 558 470" fill="none" xmlns="http://www.w3.org/2000/svg">
<path fill-rule="evenodd" clip-rule="evenodd" d="M557.631 272.324L557.02 276.214L556.128 280.082L554.957 283.916L553.512 287.708L551.8 291.447L549.829 295.124L547.609 298.731L545.151 302.26L542.467 305.704L539.572 309.057L536.48 312.312L533.208 315.466L529.773 318.514L526.192 321.454L522.484 324.285L518.666 327.004L514.755 329.613L510.768 332.111L506.722 334.501L502.633 336.784L498.516 338.963L494.385 341.042L490.254 343.024L486.137 344.914L482.045 346.718L477.991 348.439L473.984 350.085L470.033 351.659L466.15 353.17L462.341 354.624L458.616 356.027L454.982 357.387L451.448 358.712L448.02 360.01L444.703 361.289L441.504 362.557L438.426 363.822L435.474 365.093L432.648 366.378L429.952 367.682L427.385 369.015L424.946 370.383L422.634 371.792L420.447 373.248L418.381 374.756L416.432 376.321L414.595 377.946L412.864 379.635L411.233 381.39L409.695 383.213L408.242 385.106L406.867 387.067L405.561 389.098L404.316 391.196L403.123 393.359L401.973 395.585L400.857 397.871L399.766 400.213L398.692 402.605L397.625 405.042L396.557 407.52L395.479 410.031L394.385 412.569L393.265 415.128L392.114 417.698L390.924 420.274L389.69 422.847L388.406 425.409L387.066 427.952L385.666 430.469L384.203 432.951L382.674 435.391L381.075 437.78L379.405 440.112L377.662 442.38L375.847 444.577L373.958 446.697L371.996 448.734L369.963 450.684L367.859 452.541L365.688 454.301L363.451 455.963L361.152 457.523L358.795 458.98L356.382 460.333L353.918 461.582L351.408 462.729L348.856 463.776L346.267 464.726L343.646 465.583L340.997 466.351L338.325 467.036L335.634 467.642L332.927 468.173L330.209 468.632L327.48 469.022L324.744 469.346L322.003 469.604L319.259 469.799L316.514 469.93L313.768 469.997L311.023 470L308.281 469.937L305.543 469.805L302.81 469.603L300.083 469.328L297.366 468.98L294.658 468.558L291.963 468.061L289.282 467.491L286.617 466.851L283.971 466.141L281.345 465.366L278.741 464.528L276.16 463.632L273.604 462.682L271.075 461.682L268.572 460.638L266.097 459.554L263.65 458.435L261.231 457.288L258.841 456.118L256.478 454.929L254.142 453.728L251.832 452.52L249.547 451.311L247.286 450.105L245.046 448.908L242.826 447.725L240.623 446.56L238.435 445.417L236.26 444.302L234.095 443.217L231.937 442.167L229.782 441.153L227.629 440.18L225.473 439.248L223.312 438.36L221.142 437.517L218.961 436.72L216.765 435.969L214.551 435.265L212.317 434.606L210.06 433.992L207.777 433.42L205.467 432.89L203.126 432.398L200.754 431.942L198.349 431.518L195.91 431.123L193.436 430.754L190.927 430.404L188.382 430.071L185.802 429.749L183.186 429.434L180.537 429.12L177.855 428.802L175.142 428.475L172.399 428.134L169.629 427.775L166.834 427.391L164.016 426.979L161.177 426.534L158.32 426.053L155.448 425.532L152.562 424.968L149.665 424.359L146.758 423.703L143.844 422.997L140.925 422.24L138.002 421.43L135.078 420.566L132.154 419.647L129.233 418.671L126.316 417.638L123.406 416.547L120.505 415.395L117.616 414.182L114.743 412.906L111.89 411.566L109.06 410.158L106.259 408.681L103.493 407.132L100.764 405.512L98.0792 403.818L95.4421 402.049L92.8573 400.206L90.3291 398.288L87.8614 396.296L85.4577 394.231L83.1214 392.093L80.855 389.885L78.6609 387.607L76.5409 385.264L74.4963 382.856L72.5277 380.387L70.6354 377.86L68.8192 375.278L67.0781 372.644L65.411 369.963L63.8161 367.236L62.2912 364.468L60.8336 361.663L59.4403 358.822L58.1081 355.951L56.8331 353.052L55.6114 350.127L54.4388 347.18L53.3109 344.213L52.223 341.229L51.1704 338.229L50.1482 335.215L49.1516 332.189L48.1756 329.153L47.2153 326.106L46.2658 323.05L45.3225 319.984L44.3807 316.91L43.436 313.826L42.4841 310.733L41.521 307.628L40.543 304.512L39.5467 301.383L38.5291 298.24L37.4874 295.08L36.4193 291.901L35.3231 288.703L34.1973 285.482L33.041 282.236L31.8538 278.962L30.6358 275.659L29.3877 272.324L28.1107 268.954L26.8065 265.547L25.4775 262.1L24.1265 258.612L22.7569 255.081L21.3726 251.504L19.9779 247.88L18.5777 244.208L17.1773 240.487L15.7821 236.715L14.398 232.893L13.0312 229.02L11.6879 225.097L10.3749 221.123L9.09913 217.101L7.86854 213.03L6.69165 208.915L5.57756 204.756L4.5358 200.558L3.57617 196.325L2.70869 192.06L1.94345 187.769L1.29054 183.458L0.759972 179.134L0.361622 174.802L0.105175 170.47L0 166.147L0.0548573 161.84L0.277751 157.559L0.675873 153.312L1.25567 149.108L2.02281 144.957L2.9821 140.868L4.13735 136.851L5.49132 132.915L7.04568 129.069L8.80093 125.322L10.7564 121.682L12.9104 118.157L15.2599 114.756L17.8009 111.483L20.5282 108.347L23.4358 105.351L26.5165 102.501L29.7626 99.8007L33.1651 97.2526L36.7147 94.8591L40.4015 92.6212L44.2147 90.5392L48.1435 88.6127L52.1765 86.8402L56.3023 85.2194L60.5091 83.7472L64.7855 82.4199L69.1196 81.2327L73.5002 80.1807L77.9159 79.2578L82.3559 78.4576L86.8096 77.7735L91.267 77.1979L95.7185 76.7233L100.155 76.3418L104.568 76.0452L108.951 75.8253L113.295 75.6737L117.594 75.5822L121.844 75.5425L126.038 75.5465L130.173 75.5863L134.244 75.6542L138.25 75.7429L142.187 75.8453L146.055 75.9548L149.852 76.0653L153.578 76.171L157.233 76.2666L160.819 76.3474L164.335 76.4092L167.783 76.4482L171.167 76.4615L174.487 76.4464L177.748 76.4011L180.951 76.3242L184.1 76.2151L187.199 76.0739L190.25 75.9011L193.259 75.6984L196.229 75.4682L199.164 75.2133L202.067 74.9375L204.944 74.6445L207.796 74.3385L210.628 74.0226L213.441 73.6988L216.237 73.3684L219.018 73.0311L221.786 72.686L224.54 72.3309L227.282 71.9626L230.013 71.5768L232.734 71.1679L235.444 70.7294L238.146 70.2535L240.84 69.7313L243.527 69.1536L246.211 68.5115L248.892 67.7966L251.576 67.0009L254.264 66.1176L256.962 65.1405L259.673 64.0646L262.402 62.8856L265.155 61.6006L267.936 60.2076L270.751 58.7055L273.604 57.0948L276.503 55.3767L279.451 53.5539L282.454 51.6299L285.517 49.6096L288.644 47.4991L291.84 45.3053L295.109 43.0366L298.455 40.7022L301.879 38.3123L305.385 35.8781L308.973 33.4117L312.645 30.9261L316.401 28.435L320.241 25.9525L324.162 23.4937L328.162 21.0738L332.239 18.7086L336.387 16.414L340.603 14.2062L344.879 12.1012L349.211 10.1151L353.589 8.26366L358.005 6.56237L362.452 5.0262L366.917 3.66952L371.392 2.50603L375.865 1.54854L380.325 0.808963L384.76 0.298113L389.157 0.0256572L393.504 0L397.79 0.228198L402 0.715883L406.123 1.46719L410.147 2.48472L414.061 3.76948L417.852 5.32086L421.51 7.13662L425.027 9.21291L428.392 11.5443L431.597 14.1238L434.637 16.9428L437.504 19.9916L440.195 23.2588L442.705 26.7321L445.033 30.3981L447.178 34.2423L449.14 38.2497L450.921 42.4049L452.524 46.692L453.951 51.0947L455.209 55.5965L456.303 60.1808L457.242 64.8305L458.034 69.528L458.691 74.2556L459.226 78.9955L459.652 83.7304L459.983 88.4432L460.235 93.1179L460.426 97.7393L460.57 102.293L460.686 106.768L460.79 111.151L460.898 115.434L461.026 119.608L461.19 123.668L461.405 127.608L461.686 131.423L462.049 135.112L462.507 138.672L463.074 142.102L463.762 145.405L464.583 148.582L465.547 151.637L466.662 154.575L467.936 157.402L469.374 160.125L470.981 162.753L472.757 165.295L474.704 167.76L476.82 170.159L479.101 172.503L481.542 174.805L484.137 177.075L486.877 179.325L489.752 181.567L492.75 183.813L495.858 186.074L499.062 188.361L502.346 190.684L505.694 193.053L509.088 195.478L512.509 197.965L515.939 200.522L519.359 203.157L522.748 205.873L526.087 208.675L529.355 211.566L532.533 214.549L535.602 217.624L538.542 220.791L541.334 224.049L543.962 227.394L546.408 230.825L548.656 234.336L550.691 237.922L552.499 241.577L554.069 245.294L555.389 249.065L556.449 252.881L557.242 256.735L557.76 260.616L558 264.514L557.957 268.42L557.631 272.324Z" fill="url(#paint0_linear_163_596)"/>
<defs>
<linearGradient id="paint0_linear_163_596" x1="2222.89" y1="-1705.98" x2="2529.99" y2="-1305.83" gradientUnits="userSpaceOnUse">
<stop stop-color="white"/>
<stop offset="1" stop-color="#D23333"/>
</linearGradient>
</defs>
</svg>
