<svg width="1440" height="63" viewBox="0 0 1440 63" fill="none" xmlns="http://www.w3.org/2000/svg">
<path d="M318.806 44.5887C624.726 35.6244 608.159 -10.542 904.447 19.7873C1200.74 50.1167 1440 19.7873 1440 19.7873V58.5797L1432.5 62.6667H0V0C0 0 12.8857 53.553 318.806 44.5887Z" fill="#D23333"/>
<path d="M318.806 44.5887C624.726 35.6244 608.159 -10.542 904.447 19.7873C1200.74 50.1167 1440 19.7873 1440 19.7873V58.5797L1432.5 62.6667H0V0C0 0 12.8857 53.553 318.806 44.5887Z" fill="#D23333"/>
<path d="M318.806 44.5887C624.726 35.6244 608.159 -10.542 904.447 19.7873C1200.74 50.1167 1440 19.7873 1440 19.7873V58.5797L1432.5 62.6667H0V0C0 0 12.8857 53.553 318.806 44.5887Z" fill="#D23333"/>
<path d="M318.806 44.5887C624.726 35.6244 608.159 -10.542 904.447 19.7873C1200.74 50.1167 1440 19.7873 1440 19.7873V58.5797L1432.5 62.6667H0V0C0 0 12.8857 53.553 318.806 44.5887Z" fill="#D23333"/>
</svg>
